# xmcd
#
# Track frame offsets:
#	150
#	18548
#	35250
#	51260
#	75980
#	92975
#	112965
#	126603
#	148823
#	172648
#
# Disc length: 2549 seconds
#
# Revision: 2
# Processed by: cddbd v1.5.1PL0 Copyright (c) Steve Scherf et al.
# Submitted via: audiograbber 1.82.01
#
DISCID=7e09f30a
DTITLE=The Sid Hillman Quartet - Tercero
DYEAR=2005
DGENRE=Alternative
TTITLE0=Two More Days
TTITLE1=Tercero
TTITLE2=Package Them Away
TTITLE3=How Do You Want Me
TTITLE4=500 Feet
TTITLE5=Los Angeles
TTITLE6=What Love Was
TTITLE7=A Better View
TTITLE8=Drastic
TTITLE9=I Will Return
EXTD=
EXTT0=
EXTT1=
EXTT2=
EXTT3=
EXTT4=
EXTT5=
EXTT6=
EXTT7=
EXTT8=
EXTT9=
PLAYORDER=
